<svg width="750" height="300" viewBox="0 0 750 300" fill="none" xmlns="http://www.w3.org/2000/svg">
<rect width="750" height="300" fill="#1E1E1E"/>
<rect width="750" height="300" fill="#F6F8FA"/>
<path d="M355.889 159.1C357.062 160.567 358.529 162.51 360.289 164.93C362.122 167.277 363.992 169.917 365.899 172.85C367.805 175.71 369.675 178.717 371.509 181.87C373.415 185.023 375.029 188.067 376.349 191H364.689C363.222 188.213 361.609 185.39 359.849 182.53C358.162 179.67 356.439 176.957 354.679 174.39C352.919 171.75 351.159 169.293 349.399 167.02C347.712 164.747 346.172 162.767 344.779 161.08C343.825 161.153 342.835 161.19 341.809 161.19C340.855 161.19 339.865 161.19 338.839 161.19H329.269V191H318.599V115.87C321.605 115.137 324.942 114.66 328.609 114.44C332.349 114.147 335.759 114 338.839 114C349.545 114 357.685 116.017 363.259 120.05C368.905 124.083 371.729 130.097 371.729 138.09C371.729 143.15 370.372 147.477 367.659 151.07C365.019 154.663 361.095 157.34 355.889 159.1ZM339.719 123.35C335.172 123.35 331.689 123.46 329.269 123.68V152.39H336.859C340.525 152.39 343.825 152.207 346.759 151.84C349.692 151.473 352.149 150.777 354.129 149.75C356.182 148.723 357.759 147.293 358.859 145.46C359.959 143.553 360.509 141.06 360.509 137.98C360.509 135.12 359.959 132.737 358.859 130.83C357.759 128.923 356.255 127.42 354.349 126.32C352.515 125.22 350.315 124.45 347.749 124.01C345.255 123.57 342.579 123.35 339.719 123.35ZM403.887 191V160.42C398.827 152.573 394.061 144.837 389.587 137.21C385.114 129.583 380.897 122.103 376.937 114.77H389.477C392.264 120.783 395.381 126.907 398.827 133.14C402.274 139.3 405.831 145.24 409.497 150.96C413.091 145.24 416.611 139.3 420.057 133.14C423.504 126.907 426.657 120.783 429.517 114.77H441.397C437.437 122.103 433.221 129.583 428.747 137.21C424.274 144.763 419.544 152.427 414.557 160.2V191H403.887ZM514.07 152.83C514.07 159.43 513.043 165.187 510.99 170.1C508.936 174.94 506.04 178.973 502.3 182.2C498.56 185.353 494.086 187.737 488.88 189.35C483.673 190.89 477.953 191.66 471.72 191.66C468.64 191.66 465.23 191.513 461.49 191.22C457.823 191 454.486 190.523 451.48 189.79V115.87C454.486 115.137 457.823 114.66 461.49 114.44C465.23 114.147 468.64 114 471.72 114C477.953 114 483.673 114.807 488.88 116.42C494.086 117.96 498.56 120.343 502.3 123.57C506.04 126.723 508.936 130.757 510.99 135.67C513.043 140.51 514.07 146.23 514.07 152.83ZM472.6 182.31C482.72 182.31 490.273 179.743 495.26 174.61C500.246 169.403 502.74 162.143 502.74 152.83C502.74 143.517 500.246 136.293 495.26 131.16C490.273 125.953 482.72 123.35 472.6 123.35C469.593 123.35 467.246 123.387 465.56 123.46C463.946 123.533 462.81 123.607 462.15 123.68V181.98C462.81 182.053 463.946 182.127 465.56 182.2C467.246 182.273 469.593 182.31 472.6 182.31ZM592.488 152.83C592.488 159.43 591.461 165.187 589.408 170.1C587.354 174.94 584.458 178.973 580.718 182.2C576.978 185.353 572.504 187.737 567.298 189.35C562.091 190.89 556.371 191.66 550.138 191.66C547.058 191.66 543.648 191.513 539.908 191.22C536.241 191 532.904 190.523 529.898 189.79V115.87C532.904 115.137 536.241 114.66 539.908 114.44C543.648 114.147 547.058 114 550.138 114C556.371 114 562.091 114.807 567.298 116.42C572.504 117.96 576.978 120.343 580.718 123.57C584.458 126.723 587.354 130.757 589.408 135.67C591.461 140.51 592.488 146.23 592.488 152.83ZM551.018 182.31C561.138 182.31 568.691 179.743 573.678 174.61C578.664 169.403 581.158 162.143 581.158 152.83C581.158 143.517 578.664 136.293 573.678 131.16C568.691 125.953 561.138 123.35 551.018 123.35C548.011 123.35 545.664 123.387 543.978 123.46C542.364 123.533 541.228 123.607 540.568 123.68V181.98C541.228 182.053 542.364 182.127 543.978 182.2C545.664 182.273 548.011 182.31 551.018 182.31ZM657.204 191C655.958 187.7 654.784 184.473 653.684 181.32C652.584 178.093 651.448 174.83 650.274 171.53H615.734L608.804 191H597.694C600.628 182.933 603.378 175.49 605.944 168.67C608.511 161.777 611.004 155.25 613.424 149.09C615.918 142.93 618.374 137.063 620.794 131.49C623.214 125.843 625.744 120.27 628.384 114.77H638.174C640.814 120.27 643.344 125.843 645.764 131.49C648.184 137.063 650.604 142.93 653.024 149.09C655.518 155.25 658.048 161.777 660.614 168.67C663.181 175.49 665.931 182.933 668.864 191H657.204ZM647.194 162.73C644.848 156.35 642.501 150.19 640.154 144.25C637.881 138.237 635.498 132.48 633.004 126.98C630.438 132.48 627.981 138.237 625.634 144.25C623.361 150.19 621.088 156.35 618.814 162.73H647.194ZM723.054 114.77V124.01H699.074V191H688.404V124.01H664.424V114.77H723.054Z" fill="#112366"/>
<rect x="124" y="38" width="55" height="224" rx="2" fill="#447091"/>
<path d="M223 40C223 38.8954 223.895 38 225 38H276C277.105 38 278 38.8954 278 40V260C278 261.105 277.105 262 276 262H225C223.895 262 223 261.105 223 260V40Z" fill="#447091"/>
<rect x="25" y="38" width="55" height="224" rx="2" fill="#447091"/>
</svg>
